<?xml version="1.0" encoding="utf-8"?>
<!-- Generator: Adobe Illustrator 18.1.1, SVG Export Plug-In . SVG Version: 6.00 Build 0)  -->
<svg version="1.1" id="Icon" xmlns="http://www.w3.org/2000/svg" xmlns:xlink="http://www.w3.org/1999/xlink" x="0px" y="0px"
	 viewBox="8.1 378.1 574.3 95.2" enable-background="new 8.1 378.1 574.3 95.2" xml:space="preserve">
<g>
	
		<rect x="537.1" y="384.1" transform="matrix(-0.7071 -0.7071 0.7071 -0.7071 657.1812 1064.0427)" fill="#64D591" width="23.7" height="23.7"/>
	
		<rect x="553.9" y="400.8" transform="matrix(-0.7071 -0.7071 0.7071 -0.7071 673.9249 1104.4119)" opacity="0.8" fill="#64D591" enable-background="new    " width="23.7" height="23.7"/>
	
		<rect x="520.4" y="400.8" transform="matrix(-0.7071 -0.7071 0.7071 -0.7071 616.846 1080.7723)" opacity="0.6" fill="#64D591" enable-background="new    " width="23.7" height="23.7"/>
	
		<rect x="537.1" y="417.5" transform="matrix(-0.7071 -0.7071 0.7071 -0.7071 633.5418 1121.1215)" opacity="0.3" fill="#64D591" enable-background="new    " width="23.7" height="23.7"/>
</g>
<g>
	<path fill="#333333" d="M8.1,445.8v-66.6h17.2v51.6H52v15C52,445.8,8.1,445.8,8.1,445.8z"/>
	<path fill="#333333" d="M65.9,445.8v-66.6h17.2v66.6C83.1,445.8,65.9,445.8,65.9,445.8z"/>
	<path fill="#333333" d="M143.9,445.8l-28.2-38.5v38.5H98.6v-66.6h17.7l27,36.6v-36.6h17.3v66.6
		C160.5,445.8,143.9,445.8,143.9,445.8z"/>
	<path fill="#333333" d="M298.1,445.8l-16-57.2l-16,57.2h-6.4l-19.1-66.6h6.4l16.1,58.6l16.4-58.6h5.2l16.3,58.6l16.1-58.6h6.4
		l-19,66.6H298.1z"/>
	<path fill="#333333" d="M330.2,412.6c0-19.5,12.8-34.4,32.3-34.4c19.5,0,32.3,15,32.3,34.4S382,447,362.5,447
		C343,447,330.2,432.1,330.2,412.6z M388.9,412.6c0-17-10.4-29.2-26.4-29.2c-16.2,0-26.4,12.3-26.4,29.2c0,16.8,10.2,29.2,26.4,29.2
		C378.5,441.8,388.9,429.4,388.9,412.6z"/>
	<path fill="#333333" d="M447.5,445.8l-18.7-27.6h-14.7v27.6h-5.7v-66.6h24.9c11.5,0,20.3,7.3,20.3,19.5c0,12.1-8.6,18.8-18.5,19.2
		l19.3,28H447.5z M447.6,398.7c0-8.4-6-14.3-14.8-14.3h-18.7v28.7h18.7C441.6,413.1,447.6,407.1,447.6,398.7z"/>
	<path fill="#333333" d="M513.1,445.5l-29.2-29.4l-5.9,6.4v23.3h-5.7v-66.6h5.7v36.4l35.6-36.4h7.3l-33.3,33.4l32.8,32.9
		L513.1,445.5L513.1,445.5z"/>
	<g>
		<path fill="#333333" d="M214.9,445.8l-17.5-25.1l-4.5,5.6v19.5h-17.2v-66.6H193v27.4l20.5-27.4h21.2l-25.9,31.2l27.3,35.4
			C236,445.8,214.9,445.8,214.9,445.8z"/>
	</g>
</g>
<g>
	<path fill="#333333" d="M8.4,473.2v-12.6H10v11.2h6.1v1.4L8.4,473.2L8.4,473.2z"/>
	<path fill="#333333" d="M27.7,473.2l-1.2-2.8H20l-1.2,2.8H17l5.3-12.6h2l5.3,12.6H27.7z M23.3,462.2l-2.8,6.8h5.6L23.3,462.2z"/>
	<path fill="#333333" d="M40.6,473.2l-7.6-10v10h-1.6v-12.6H33l7.5,9.8v-9.8h1.6v12.6H40.6z"/>
	<path fill="#333333" d="M45.2,473.2v-12.6h4.5c4.1,0,6.7,2.7,6.7,6.3c0,3.6-2.7,6.3-6.7,6.3H45.2z M54.7,466.9c0-2.7-1.8-4.9-5-4.9
		h-2.9v9.8h2.9C52.9,471.8,54.7,469.6,54.7,466.9z"/>
	<path fill="#333333" d="M58.2,471.4l1-1.2c0.9,0.9,2.3,1.8,4.1,1.8c2.3,0,3.1-1.2,3.1-2.2c0-3.3-7.8-1.4-7.8-6
		c0-2.1,1.9-3.5,4.5-3.5c2,0,3.6,0.6,4.7,1.7l-1,1.2c-1-1-2.4-1.5-3.8-1.5c-1.6,0-2.7,0.8-2.7,2c0,2.8,7.8,1.2,7.8,5.9
		c0,1.8-1.3,3.7-4.8,3.7C60.9,473.4,59.3,472.5,58.2,471.4z"/>
	<path fill="#333333" d="M79.8,473.2v-5.8h-7.7v5.8h-1.6v-12.6h1.6v5.4h7.7v-5.4h1.6v12.6H79.8z"/>
	<path fill="#333333" d="M84.5,468.2v-7.7h1.6v7.7c0,2.3,1.3,3.8,3.7,3.8s3.7-1.4,3.7-3.8v-7.7h1.6v7.7c0,3.1-1.8,5.1-5.3,5.1
		S84.5,471.4,84.5,468.2z"/>
	<path fill="#333333" d="M101.5,473.2V462h-4.1v-1.4h9.9v1.4h-4.2v11.2H101.5z"/>
	<path fill="#333333" d="M109.4,473.2v-12.6h8.6v1.4h-6.9v4.1h6.8v1.4H111v4.3h6.9v1.4L109.4,473.2L109.4,473.2z"/>
	<path fill="#333333" d="M128.2,473.2l-3.3-5h-2.6v5h-1.6v-12.6h5.3c2.4,0,4.1,1.5,4.1,3.8c0,2.3-1.6,3.5-3.4,3.7l3.5,5.1H128.2z
		 M128.3,464.4c0-1.4-1.1-2.4-2.6-2.4h-3.4v4.8h3.4C127.2,466.8,128.3,465.8,128.3,464.4z"/>
	<path fill="#333333" d="M137.6,473.2v-12.6h1.6v12.6H137.6z"/>
	<path fill="#333333" d="M151.6,473.2l-7.6-10v10h-1.6v-12.6h1.7l7.5,9.8v-9.8h1.6v12.6H151.6z"/>
	<path fill="#333333" d="M165.5,473.2l-7.6-10v10h-1.6v-12.6h1.7l7.5,9.8v-9.8h1.6v12.6H165.5z"/>
	<path fill="#333333" d="M169.6,466.9c0-3.7,2.6-6.5,6.5-6.5c3.9,0,6.5,2.8,6.5,6.5s-2.6,6.5-6.5,6.5
		C172.2,473.4,169.6,470.6,169.6,466.9z M180.9,466.9c0-2.9-1.9-5.1-4.8-5.1c-3,0-4.8,2.2-4.8,5.1c0,2.9,1.9,5.1,4.8,5.1
		C179,472,180.9,469.8,180.9,466.9z"/>
	<path fill="#333333" d="M188.7,473.2l-5.3-12.6h1.9l4.4,10.9l4.4-10.9h1.9l-5.3,12.6H188.7z"/>
	<path fill="#333333" d="M206,473.2l-1.2-2.8h-6.5l-1.2,2.8h-1.9l5.3-12.6h2l5.3,12.6H206z M201.5,462.2l-2.8,6.8h5.6L201.5,462.2z"
		/>
	<path fill="#333333" d="M211.5,473.2V462h-4.1v-1.4h9.9v1.4h-4.2v11.2H211.5z"/>
	<path fill="#333333" d="M219.4,473.2v-12.6h1.6v12.6H219.4z"/>
	<path fill="#333333" d="M223.6,466.9c0-3.7,2.6-6.5,6.5-6.5c3.9,0,6.5,2.8,6.5,6.5s-2.6,6.5-6.5,6.5
		C226.2,473.4,223.6,470.6,223.6,466.9z M234.9,466.9c0-2.9-1.9-5.1-4.8-5.1c-3,0-4.8,2.2-4.8,5.1c0,2.9,1.9,5.1,4.8,5.1
		C233,472,234.9,469.8,234.9,466.9z"/>
	<path fill="#333333" d="M248.4,473.2l-7.6-10v10h-1.6v-12.6h1.7l7.5,9.8v-9.8h1.6v12.6H248.4z"/>
	<path fill="#333333" d="M252.3,471.4l1-1.2c0.9,0.9,2.3,1.8,4.1,1.8c2.3,0,3.1-1.2,3.1-2.2c0-3.3-7.8-1.4-7.8-6
		c0-2.1,1.9-3.5,4.5-3.5c2,0,3.6,0.6,4.7,1.7l-1,1.2c-1-1-2.4-1.5-3.8-1.5c-1.6,0-2.7,0.8-2.7,2c0,2.8,7.8,1.2,7.8,5.9
		c0,1.8-1.3,3.7-4.8,3.7C255,473.4,253.4,472.5,252.3,471.4z"/>
	<path fill="#333333" d="M263.6,467.3v-1.3h4.7v1.3H263.6z"/>
	<path fill="#333333" d="M275.5,468.2v-7.7h1.6v7.7c0,2.3,1.3,3.8,3.7,3.8c2.4,0,3.7-1.4,3.7-3.8v-7.7h1.6v7.7
		c0,3.1-1.8,5.1-5.3,5.1C277.3,473.4,275.5,471.4,275.5,468.2z"/>
	<path fill="#333333" d="M298.7,473.2l-7.6-10v10h-1.6v-12.6h1.7l7.5,9.8v-9.8h1.6v12.6H298.7z"/>
	<path fill="#333333" d="M303.4,473.2v-12.6h4.5c4.1,0,6.7,2.7,6.7,6.3c0,3.6-2.7,6.3-6.7,6.3H303.4z M312.9,466.9
		c0-2.7-1.8-4.9-5-4.9H305v9.8h2.9C311.1,471.8,312.9,469.6,312.9,466.9z"/>
	<path fill="#333333" d="M330.3,473.2l-5-5.7l-1.3,1.4v4.2h-1.6v-12.6h1.6v6.5l5.8-6.5h2l-5.5,6l5.9,6.6H330.3z"/>
	<path fill="#333333" d="M332.7,466.9c0-3.7,2.6-6.5,6.5-6.5c3.9,0,6.5,2.8,6.5,6.5s-2.6,6.5-6.5,6.5
		C335.3,473.4,332.7,470.6,332.7,466.9z M344,466.9c0-2.9-1.9-5.1-4.8-5.1c-3,0-4.8,2.2-4.8,5.1c0,2.9,1.9,5.1,4.8,5.1
		C342.1,472,344,469.8,344,466.9z"/>
	<path fill="#333333" d="M359.6,473.2v-10.4l-4.5,10.4h-0.7l-4.4-10.4v10.4h-1.6v-12.6h2.3l4.1,9.5l4.1-9.5h2.3v12.6H359.6z"/>
	<path fill="#333333" d="M364.4,473.2v-12.6h5.3c2.6,0,4.1,1.7,4.1,3.8c0,2.1-1.5,3.8-4.1,3.8H366v5L364.4,473.2L364.4,473.2z
		 M372.1,464.4c0-1.4-1.1-2.4-2.6-2.4H366v4.8h3.4C371,466.7,372.1,465.8,372.1,464.4z"/>
	<path fill="#333333" d="M376,473.2v-12.6h8.6v1.4h-6.9v4.1h6.8v1.4h-6.8v4.3h6.9v1.4L376,473.2L376,473.2z"/>
	<path fill="#333333" d="M390.5,473.2V462h-4.1v-1.4h9.9v1.4h-4.2v11.2H390.5z"/>
	<path fill="#333333" d="M398.6,473.2v-12.6h8.6v1.4h-6.9v4.1h6.8v1.4h-6.8v4.3h6.9v1.4L398.6,473.2L398.6,473.2z"/>
	<path fill="#333333" d="M419.1,473.2l-7.6-10v10h-1.6v-12.6h1.7l7.5,9.8v-9.8h1.6v12.6H419.1z"/>
	<path fill="#333333" d="M423.3,473.2v-1.3l7.4-9.9h-7.4v-1.4h9.4v1.3l-7.4,9.9h7.5v1.4H423.3L423.3,473.2z"/>
	<path fill="#333333" d="M434.9,473.2v-1.3l7.4-9.9h-7.4v-1.4h9.4v1.3l-7.4,9.9h7.5v1.4H434.9L434.9,473.2z"/>
	<path fill="#333333" d="M447,473.2v-12.6h8.6v1.4h-6.9v4.1h6.8v1.4h-6.8v4.3h6.9v1.4L447,473.2L447,473.2z"/>
	<path fill="#333333" d="M467.6,473.2l-7.6-10v10h-1.6v-12.6h1.7l7.5,9.8v-9.8h1.6v12.6H467.6z"/>
	<path fill="#333333" d="M475.6,473.2V462h-4.1v-1.4h9.9v1.4h-4.2v11.2H475.6z"/>
	<path fill="#333333" d="M491.2,473.2l-3.3-5h-2.6v5h-1.6v-12.6h5.3c2.4,0,4.1,1.5,4.1,3.8c0,2.3-1.6,3.5-3.4,3.7l3.5,5.1H491.2z
		 M491.3,464.4c0-1.4-1.1-2.4-2.6-2.4h-3.4v4.8h3.4C490.2,466.8,491.3,465.8,491.3,464.4z"/>
	<path fill="#333333" d="M495.6,468.2v-7.7h1.6v7.7c0,2.3,1.3,3.8,3.7,3.8s3.7-1.4,3.7-3.8v-7.7h1.6v7.7c0,3.1-1.8,5.1-5.3,5.1
		S495.6,471.4,495.6,468.2z"/>
	<path fill="#333333" d="M520.7,473.2v-10.4l-4.5,10.4h-0.7l-4.4-10.4v10.4h-1.6v-12.6h2.3l4.1,9.5l4.1-9.5h2.3v12.6H520.7z"/>
</g>
</svg>
